<svg version="1.1"
      xmlns="http://www.w3.org/2000/svg"
      xmlns:xlink="http://www.w3.org/1999/xlink"  id="snapshot-12236" width="250" height="250" viewBox="0 0 250 250"><desc>This image was made on Patterninja.com</desc><defs>
<!-- image 34579 -->
<g id="transformed-34579" data-image="34579" transform="translate(37.26647906860464, 209.7489804034776) rotate(356, 15.993520931395361, 18.51101959652241)"><g><svg version="1.1" width="31.987041862790722px" height="37.02203919304482px" viewBox="0 0 31.987041862790722 37.02203919304482"><g id="original-34579"><svg xmlns="http://www.w3.org/2000/svg" viewBox="0 0 64 74" xmlns:xlink="http://www.w3.org/1999/xlink" version="1.1" preserveAspectRatio="xMidYMid meet">
  <path fill-rule="evenodd" d="M63.854 41.386a12.81 12.81 0 0 0-4.52-9.773V17.05a3 3 0 0 0-3-3H41.773C39.416 11.288 35.915 9.53 32 9.53c-3.916 0-7.416 1.757-9.773 4.52H7.665a3 3 0 0 0-3 3v14.562C1.902 33.969.145 37.47.145 41.386c0 3.915 1.757 7.416 4.52 9.772v14.563a3 3 0 0 0 3 3h14.562c2.357 2.762 5.857 4.52 9.773 4.52 3.915 0 7.416-1.758 9.772-4.52h14.563a3 3 0 0 0 3-3V51.158c2.762-2.356 4.52-5.857 4.52-9.772z" fill="rgba(66, 61, 56, 1)" stroke="none"/>
  <path fill-rule="evenodd" d="M56.335 59.72H7.665a3 3 0 0 1-3-3V8.05a3 3 0 0 1 3-3h48.67a3 3 0 0 1 3 3v48.67a3 3 0 0 1-3 3z" fill="rgba(249, 204, 78, 1)" stroke="none"/>
  <circle cx="16.859" cy="17.242" r="10.446" fill-rule="evenodd" transform="rotate(-45 16.859 17.242)" fill="rgba(209, 104, 84, 1)" stroke="none"/>
  <circle cx="16.859" cy="17.242" r="9.251" fill-rule="evenodd" transform="rotate(-45 16.859 17.242)" fill="rgba(181, 73, 44, 1)" stroke="none"/>
  <circle cx="16.859" cy="17.242" r="7.022" fill-rule="evenodd" transform="rotate(-45 16.859 17.242)" fill="rgba(209, 104, 84, 1)" stroke="none"/>
  <circle cx="47.145" cy="17.242" r="10.446" fill-rule="evenodd" transform="rotate(-45 47.145 17.242)" fill="rgba(209, 104, 84, 1)" stroke="none"/>
  <circle cx="47.145" cy="17.242" r="9.251" fill-rule="evenodd" transform="rotate(-45 47.145 17.242)" fill="rgba(181, 73, 44, 1)" stroke="none"/>
  <circle cx="47.145" cy="17.242" r="7.022" fill-rule="evenodd" transform="rotate(-45 47.145 17.242)" fill="rgba(209, 104, 84, 1)" stroke="none"/>
  <circle cx="47.146" cy="47.529" r="10.446" fill-rule="evenodd" transform="rotate(-45 47.146 47.529)" fill="rgba(209, 104, 84, 1)" stroke="none"/>
  <circle cx="47.146" cy="47.529" r="9.251" fill-rule="evenodd" transform="rotate(-45 47.146 47.529)" fill="rgba(181, 73, 44, 1)" stroke="none"/>
  <circle cx="47.146" cy="47.529" r="7.022" fill-rule="evenodd" transform="rotate(-45 47.146 47.529)" fill="rgba(209, 104, 84, 1)" stroke="none"/>
  <circle cx="16.859" cy="47.529" r="10.446" fill-rule="evenodd" transform="rotate(-45 16.859 47.529)" fill="rgba(209, 104, 84, 1)" stroke="none"/>
  <circle cx="16.859" cy="47.529" r="9.251" fill-rule="evenodd" transform="rotate(-45 16.859 47.529)" fill="rgba(181, 73, 44, 1)" stroke="none"/>
  <circle cx="16.859" cy="47.529" r="7.022" fill-rule="evenodd" transform="rotate(-45 16.859 47.529)" fill="rgba(209, 104, 84, 1)" stroke="none"/>
  <circle cx="12.993" cy="32.386" r="12.848" fill-rule="evenodd" fill="rgba(153, 198, 74, 1)" stroke="none"/>
  <circle cx="32" cy="13.379" r="12.848" fill-rule="evenodd" fill="rgba(153, 198, 74, 1)" stroke="none"/>
  <circle cx="51.006" cy="32.386" r="12.848" fill-rule="evenodd" fill="rgba(153, 198, 74, 1)" stroke="none"/>
  <circle cx="32" cy="51.392" r="12.848" fill-rule="evenodd" fill="rgba(153, 198, 74, 1)" stroke="none"/>
  <path fill-rule="evenodd" d="M4.665 46.768a28.002 28.002 0 0 0 6.993 12.953h40.683a28.002 28.002 0 0 0 6.994-12.953V34.003C56.444 21.575 45.307 12.313 32 12.313c-13.308 0-24.444 9.263-27.335 21.69v12.765z" fill="rgba(83, 71, 65, 0.1)" stroke="none"/>
  <circle cx="32" cy="32.386" r="28.073" fill-rule="evenodd" fill="rgba(229, 175, 110, 1)" stroke="none"/>
  <circle cx="32" cy="32.386" r="26.615" fill-rule="evenodd" fill="rgba(206, 151, 91, 1)" stroke="none"/>
  <ellipse cx="32" cy="26.191" fill-rule="evenodd" rx="22.166" ry="19.293" fill="rgba(229, 175, 110, 1)" stroke="none"/>
  <ellipse cx="32" cy="14.216" fill-rule="evenodd" rx="1.651" ry=".837" fill="rgba(255, 232, 194, 1)" stroke="none"/>
  <ellipse cx="32" cy="32.386" fill-rule="evenodd" rx="1.651" ry=".837" fill="rgba(255, 232, 194, 1)" stroke="none"/>
  <ellipse cx="22.56" cy="36.229" fill-rule="evenodd" transform="rotate(-22.156 22.56 36.23)" rx=".837" ry="1.65" fill="rgba(255, 232, 194, 1)" stroke="none"/>
  <ellipse cx="22.608" cy="28.427" fill-rule="evenodd" transform="rotate(-67.156 22.608 28.427)" rx="1.651" ry=".837" fill="rgba(255, 232, 194, 1)" stroke="none"/>
  <ellipse cx="28.156" cy="22.947" fill-rule="evenodd" transform="rotate(-22.156 28.156 22.947)" rx="1.65" ry=".837" fill="rgba(255, 232, 194, 1)" stroke="none"/>
  <ellipse cx="35.957" cy="22.992" fill-rule="evenodd" transform="rotate(-67.156 35.957 22.992)" rx=".837" ry="1.651" fill="rgba(255, 232, 194, 1)" stroke="none"/>
  <ellipse cx="41.439" cy="28.542" fill-rule="evenodd" transform="rotate(-22.156 41.439 28.542)" rx=".837" ry="1.65" fill="rgba(255, 232, 194, 1)" stroke="none"/>
  <ellipse cx="41.393" cy="36.34" fill-rule="evenodd" transform="rotate(-67.156 41.393 36.34)" rx="1.651" ry=".837" fill="rgba(255, 232, 194, 1)" stroke="none"/>
  <ellipse cx="35.843" cy="41.825" fill-rule="evenodd" transform="rotate(-22.156 35.843 41.825)" rx="1.65" ry=".837" fill="rgba(255, 232, 194, 1)" stroke="none"/>
  <ellipse cx="28.044" cy="41.776" fill-rule="evenodd" transform="rotate(-67.156 28.044 41.776)" rx=".837" ry="1.651" fill="rgba(255, 232, 194, 1)" stroke="none"/>
  <ellipse cx="44.85" cy="19.537" fill-rule="evenodd" transform="rotate(-45 44.85 19.537)" rx=".837" ry="1.651" fill="rgba(255, 232, 194, 1)" stroke="none"/>
  <ellipse cx="50.17" cy="32.386" fill-rule="evenodd" rx=".837" ry="1.651" fill="rgba(255, 232, 194, 1)" stroke="none"/>
  <ellipse cx="44.85" cy="45.233" fill-rule="evenodd" transform="rotate(-45 44.85 45.233)" rx="1.651" ry=".837" fill="rgba(255, 232, 194, 1)" stroke="none"/>
  <ellipse cx="32" cy="50.556" fill-rule="evenodd" rx="1.651" ry=".837" fill="rgba(255, 232, 194, 1)" stroke="none"/>
  <ellipse cx="19.154" cy="45.234" fill-rule="evenodd" transform="rotate(-45 19.154 45.234)" rx=".837" ry="1.651" fill="rgba(255, 232, 194, 1)" stroke="none"/>
  <ellipse cx="13.83" cy="32.386" fill-rule="evenodd" rx=".837" ry="1.651" fill="rgba(255, 232, 194, 1)" stroke="none"/>
  <ellipse cx="19.154" cy="19.537" fill-rule="evenodd" transform="rotate(-45 19.154 19.537)" rx="1.651" ry=".837" fill="rgba(255, 232, 194, 1)" stroke="none"/>
</svg>
</g></svg></g></g>
<!-- /image 34579 -->

<!-- image 75948 -->
<g id="transformed-75948" data-image="75948" transform="translate(167.0841063738297, 167.26821071491398) rotate(349, 17.69589362617029, 16.42178928508602)"><g><svg version="1.1" width="35.39178725234058px" height="32.84357857017204px" viewBox="0 0 35.39178725234058 32.84357857017204"><g id="original-75948"><svg xmlns="http://www.w3.org/2000/svg" viewBox="0 0 72 67" xmlns:xlink="http://www.w3.org/1999/xlink" version="1.1" preserveAspectRatio="xMidYMid meet">
  <path fill-rule="evenodd" d="M1.013 20.69l33.539 45.222a2 2 0 0 0 3.213 0l33.539-45.221a2.01 2.01 0 0 0-.488-2.853C60.97 11.033 49.03 7.045 36.158 7.045c-12.873 0-24.813 3.988-34.657 10.793a2.01 2.01 0 0 0-.488 2.853z" fill="rgba(66, 61, 56, 1)" stroke="none"/>
  <path fill-rule="evenodd" d="M1.013 13.69l33.539 45.222a2 2 0 0 0 3.213 0l33.539-45.221a2.01 2.01 0 0 0-.488-2.853C60.97 4.033 49.03.045 36.158.045c-12.873 0-24.813 3.988-34.657 10.793a2.01 2.01 0 0 0-.488 2.853z" fill="rgba(229, 175, 110, 1)" stroke="none"/>
  <path fill-rule="evenodd" d="M2.02 15.05l1.114 1.5a60.73 60.73 0 0 1 33.024-9.708 60.73 60.73 0 0 1 33.025 9.709l1.113-1.501A60.73 60.73 0 0 0 36.158 4.602 60.73 60.73 0 0 0 2.02 15.05z" fill="rgba(188, 143, 72, 0.5)" stroke="none"/>
  <path fill-rule="evenodd" d="M4.763 18.748l29.789 40.164a2 2 0 0 0 3.213 0l29.788-40.164A52.462 52.462 0 0 0 36.158 8.376 52.462 52.462 0 0 0 4.763 18.748z" fill="rgba(255, 232, 194, 1)" stroke="none"/>
  <path fill-rule="evenodd" d="M14.622 15c4.928 0 4.928 8 9.856 8 4.927 0 4.927-8 9.853-8 4.93 0 4.93 8 9.86 8s11.134-10.219 13.41-5.845c2.017 3.88-9.28.332-13.154 2.361-3.873 2.029-.161 9.116-4.034 11.144-3.876 2.03-7.588-5.056-11.464-3.026-3.876 2.03-.463 5.232-2.24 9.23-1.209 2.716-.683 2.374 2.29 2.374 2.976 0 2.976-8 5.951-8 2.977 0 2.977 8 5.955 8 2.977 0 7.401-8.773 9.171-6.378 1.469 1.986-7.876 1.757-9.44 3.669-1.564 1.912 4.628 6.977 3.064 8.89-1.567 1.915-7.76-3.15-9.326-1.234-1.567 1.915 4.626 6.98 3.059 8.896" fill="rgba(0, 0, 0, 1)" stroke="rgba(209, 104, 84, 1)"/>
  <path fill-rule="evenodd" d="M29.441 33.048c1.511 2.022-.128 3.662-2.15 2.15-2.023 1.512-3.662-.128-2.151-2.15-1.511-2.022.128-3.662 2.15-2.15 2.023-1.512 3.662.128 2.151 2.15z" fill="rgba(153, 198, 74, 1)" stroke="none"/>
  <path fill-rule="evenodd" d="M47.176 33.048c1.511 2.022-.128 3.662-2.15 2.15-2.023 1.512-3.662-.128-2.15-2.15-1.512-2.022.127-3.662 2.15-2.15 2.022-1.512 3.661.128 2.15 2.15z" fill="rgba(153, 198, 74, 1)" stroke="none"/>
  <path fill-rule="evenodd" d="M37.765 56.912a2 2 0 0 1-3.213 0L5.733 18.056c-.324.23-.651.455-.97.692l29.789 40.164a2 2 0 0 0 3.213 0l29.788-40.164c-.318-.237-.646-.463-.97-.692L37.765 56.912z" fill="rgba(83, 71, 65, 0.1)" stroke="none"/>
  <path fill-rule="evenodd" d="M36.158 10.375a52.442 52.442 0 0 1 30.425 9.68l.97-1.307A52.462 52.462 0 0 0 36.158 8.375 52.462 52.462 0 0 0 4.763 18.748l.97 1.308a52.442 52.442 0 0 1 30.425-9.68z" fill="rgba(83, 71, 65, 0.1)" stroke="none"/>
  <circle cx="24.628" cy="23.382" r="6.096" fill-rule="evenodd" fill="rgba(83, 71, 65, 0.1)" stroke="none"/>
  <circle cx="24.628" cy="22.382" r="6.096" fill-rule="evenodd" fill="rgba(209, 104, 84, 1)" stroke="none"/>
  <circle cx="24.628" cy="22.382" r="5.398" fill-rule="evenodd" fill="rgba(181, 73, 44, 1)" stroke="none"/>
  <circle cx="24.628" cy="22.382" r="1.86" fill-rule="evenodd" fill="rgba(209, 104, 84, 1)" stroke="none"/>
  <circle cx="36.158" cy="40.388" r="6.096" fill-rule="evenodd" fill="rgba(83, 71, 65, 0.1)" stroke="none"/>
  <circle cx="36.158" cy="39.388" r="6.096" fill-rule="evenodd" fill="rgba(209, 104, 84, 1)" stroke="none"/>
  <circle cx="36.158" cy="39.388" r="5.398" fill-rule="evenodd" fill="rgba(181, 73, 44, 1)" stroke="none"/>
  <circle cx="36.158" cy="39.388" r="1.86" fill-rule="evenodd" fill="rgba(209, 104, 84, 1)" stroke="none"/>
  <circle cx="47.688" cy="23.382" r="6.096" fill-rule="evenodd" fill="rgba(83, 71, 65, 0.1)" stroke="none"/>
  <circle cx="47.688" cy="22.382" r="6.096" fill-rule="evenodd" fill="rgba(209, 104, 84, 1)" stroke="none"/>
  <circle cx="47.688" cy="22.382" r="5.398" fill-rule="evenodd" fill="rgba(181, 73, 44, 1)" stroke="none"/>
  <circle cx="47.688" cy="22.382" r="1.86" fill-rule="evenodd" fill="rgba(209, 104, 84, 1)" stroke="none"/>
  <circle cx="13.348" cy="19.194" r="1.908" fill-rule="evenodd" fill="rgba(188, 143, 72, 1)" stroke="none"/>
  <circle cx="58.968" cy="19.194" r="1.908" fill-rule="evenodd" fill="rgba(188, 143, 72, 1)" stroke="none"/>
  <circle cx="36.158" cy="28.477" r="1.908" fill-rule="evenodd" fill="rgba(188, 143, 72, 1)" stroke="none"/>
  <circle cx="36.158" cy="15.194" r="1.908" fill-rule="evenodd" fill="rgba(188, 143, 72, 1)" stroke="none"/>
  <circle cx="27.291" cy="33.048" r="1.244" fill-rule="evenodd" fill="rgba(135, 102, 54, 1)" stroke="none"/>
  <circle cx="45.026" cy="33.048" r="1.244" fill-rule="evenodd" fill="rgba(135, 102, 54, 1)" stroke="none"/>
  <path fill-rule="evenodd" d="M37.796 22.194c1.15 1.54-.098 2.788-1.638 1.637-1.54 1.151-2.788-.097-1.637-1.637-1.151-1.54.097-2.788 1.637-1.638 1.54-1.15 2.788.098 1.638 1.638z" fill="rgba(153, 198, 74, 1)" stroke="none"/>
  <path fill-rule="evenodd" d="M37.796 50.355c1.15 1.54-.098 2.789-1.638 1.638-1.54 1.15-2.788-.098-1.637-1.638-1.151-1.54.097-2.788 1.637-1.637 1.54-1.15 2.788.098 1.638 1.637z" fill="rgba(153, 198, 74, 1)" stroke="none"/>
</svg>
</g></svg></g></g>
<!-- /image 75948 -->

<!-- image 27854 -->
<g id="transformed-27854" data-image="27854" transform="translate(118.76257215783923, 38.00606454703778) rotate(357, 19.277427842160765, 20.683935452962217)"><g><svg version="1.1" width="38.55485568432153px" height="41.367870905924434px" viewBox="0 0 38.55485568432153 41.367870905924434"><g id="original-27854"><svg xmlns="http://www.w3.org/2000/svg" viewBox="0 0 100 107" xmlns:xlink="http://www.w3.org/1999/xlink" version="1.1" preserveAspectRatio="xMidYMid meet">
  <circle cx="50.393" cy="57.383" r="49.454" fill-rule="evenodd" fill="rgba(66, 61, 56, 1)" stroke="none"/>
  <circle cx="50.393" cy="50.383" r="49.454" fill-rule="evenodd" fill="rgba(242, 244, 239, 1)" stroke="none"/>
  <circle cx="50.393" cy="50.383" r="34.675" fill-rule="evenodd" fill="rgba(230, 234, 225, 1)" stroke="none"/>
  <g transform="translate(54 26)">
    <path d="M.338 1.667v33.044h33.043V8.638l-6.97-6.971z" fill="rgba(83, 71, 65, 0.1)" stroke="none" fill-rule="evenodd"/>
    <path d="M26.411 1.667l6.97 6.971h-6.97z" fill="rgba(83, 71, 65, 0.1)" stroke="none" fill-rule="evenodd"/>
    <path d="M.338 1.667V32.71a1 1 0 0 0 1 1H32.38a1 1 0 0 0 1-1V7.638L26.411.667H1.338a1 1 0 0 0-1 1z" fill="rgba(226, 133, 121, 1)" stroke="none" fill-rule="evenodd"/>
    <path d="M33.381 8.823h-6.97V6.638l6.97 1z" fill="rgba(83, 71, 65, 0.1)" stroke="none" fill-rule="evenodd"/>
    <path d="M26.41.667l6.971 6.97h-5.97a1 1 0 0 1-1-1V.668z" fill="rgba(237, 174, 169, 1)" stroke="none" fill-rule="evenodd"/>
    <ellipse cx="15.276" cy="22.551" rx="2.062" ry=".498" fill="rgba(237, 174, 169, 1)" stroke="none" fill-rule="evenodd"/>
    <ellipse cx="25.723" cy="16.691" rx="2.062" ry=".498" fill="rgba(237, 174, 169, 1)" stroke="none" fill-rule="evenodd"/>
    <ellipse cx="6.198" cy="10.026" rx="2.062" ry=".498" fill="rgba(237, 174, 169, 1)" stroke="none" fill-rule="evenodd"/>
    <ellipse cx="18.446" cy="6.496" rx="2.062" ry=".498" fill="rgba(237, 174, 169, 1)" stroke="none" fill-rule="evenodd"/>
  </g>
  <path fill-rule="evenodd" d="M50.19 48.386c4.339 5.207 2.228 9.922-4.253 10.266-.344 6.48-5.059 8.591-10.266 4.252-5.208 4.34-9.922 2.229-10.267-4.252-6.48-.344-8.59-5.059-4.252-10.266-4.339-5.208-2.228-9.922 4.252-10.267.345-6.48 5.06-8.591 10.267-4.252 5.207-4.34 9.922-2.228 10.266 4.252 6.48.345 8.592 5.06 4.253 10.267z" fill="rgba(83, 71, 65, 0.1)" stroke="none"/>
  <path fill-rule="evenodd" d="M50.19 47.386c4.339 5.207 2.228 9.922-4.253 10.266-.344 6.48-5.059 8.591-10.266 4.252-5.208 4.34-9.922 2.229-10.267-4.252-6.48-.344-8.59-5.059-4.252-10.266-4.339-5.208-2.228-9.922 4.252-10.267.345-6.48 5.06-8.591 10.267-4.252 5.207-4.34 9.922-2.228 10.266 4.252 6.48.345 8.592 5.06 4.253 10.267z" fill="rgba(153, 198, 74, 1)" stroke="none"/>
  <g transform="translate(27 47)">
    <circle cx="5.532" cy="6.909" r="5.523" fill="rgba(83, 71, 65, 0.1)" stroke="none" fill-rule="evenodd"/>
    <circle cx="5.532" cy="5.909" r="5.523" fill="rgba(249, 145, 43, 1)" stroke="none" fill-rule="evenodd"/>
    <circle cx="5.532" cy="5.909" r="2.688" fill="rgba(255, 166, 85, 1)" stroke="none" fill-rule="evenodd"/>
  </g>
  <g transform="translate(27 38)">
    <circle cx="5.532" cy="6.898" r="5.523" fill="rgba(83, 71, 65, 0.1)" stroke="none" fill-rule="evenodd"/>
    <circle cx="5.532" cy="5.898" r="5.523" fill="rgba(249, 145, 43, 1)" stroke="none" fill-rule="evenodd"/>
    <circle cx="5.532" cy="5.898" r="2.688" fill="rgba(255, 166, 85, 1)" stroke="none" fill-rule="evenodd"/>
  </g>
  <g transform="translate(66 24)">
    <path d="M11.996 52.911a5 5 0 0 1-9.369-1.92 222.166 222.166 0 0 1 .104-42.924 5 5 0 0 1 9.951.993 212.147 212.147 0 0 0-.1 40.988 4.975 4.975 0 0 1-.586 2.863z" fill="rgba(83, 71, 65, 0.1)" stroke="none" fill-rule="evenodd"/>
    <path d="M10.971 49.92A5 5 0 0 1 1.602 48a222.166 222.166 0 0 1 .105-42.925 5 5 0 0 1 9.95.994 212.146 212.146 0 0 0-.1 40.987 4.975 4.975 0 0 1-.586 2.863z" fill="rgba(183, 111, 75, 1)" stroke="none" fill-rule="evenodd"/>
    <path d="M6.235 1.726a4.764 4.764 0 0 0-1.81.173c2.231.59 3.774 2.714 3.537 5.084a202.974 202.974 0 0 0-.095 39.215 4.76 4.76 0 0 1-.561 2.74 4.782 4.782 0 0 1-2.873 2.298c.534.143 1.097.21 1.68.155a4.78 4.78 0 0 0 4.311-5.214 202.972 202.972 0 0 1 .096-39.215 4.784 4.784 0 0 0-4.285-5.236z" fill="rgba(83, 71, 65, 0.1)" stroke="none" fill-rule="evenodd"/>
    <ellipse cx="3.968" cy="6.939" transform="rotate(-80.339 3.968 6.939)" rx="2.09" ry="1.21" fill="rgba(255, 232, 194, 0.2)" stroke="none" fill-rule="evenodd"/>
  </g>
  <g transform="translate(32 33)">
    <path d="M35.73 19.985c2.214 10.797-6.54 19.55-17.336 17.337-10.798 2.213-19.55-6.54-17.337-17.337C-1.157 9.187 7.597.435 18.394 2.648 29.19.435 37.944 9.188 35.73 19.985z" fill="rgba(83, 71, 65, 0.1)" stroke="none" fill-rule="evenodd"/>
    <path d="M35.73 17.985c2.214 10.797-6.54 19.55-17.336 17.337-10.798 2.213-19.55-6.54-17.337-17.337C-1.157 7.187 7.597-1.565 18.394.648c10.797-2.213 19.55 6.54 17.336 17.337z" fill="rgba(255, 255, 255, 1)" stroke="none" fill-rule="evenodd"/>
    <circle cx="18.393" cy="17.985" r="7.881" fill="rgba(83, 71, 65, 0.1)" stroke="none" fill-rule="evenodd"/>
    <circle cx="18.393" cy="17.985" r="7.57" fill="rgba(249, 204, 78, 1)" stroke="none" fill-rule="evenodd"/>
    <path d="M18.393 23.575a7.571 7.571 0 0 1-7.42-6.08c-.097.482-.15.98-.15 1.49 0 4.18 2.697 8.57 7.57 8.57 4.874 0 7.57-4.39 7.57-8.57a7.62 7.62 0 0 0-.148-1.49 7.571 7.571 0 0 1-7.422 6.08z" fill="rgba(83, 71, 65, 0.1)" stroke="none" fill-rule="evenodd"/>
    <ellipse cx="18.393" cy="13.995" rx="2.072" ry="1.446" fill="rgba(255, 232, 194, 1)" stroke="none" fill-rule="evenodd"/>
    <ellipse cx="7.961" cy="8.962" transform="rotate(-45 7.961 9.026)" rx=".643" ry=".436" fill="rgba(188, 143, 72, 0.5)" stroke="none" fill-rule="evenodd"/>
    <ellipse cx="8.154" cy="12.206" transform="rotate(-45 8.154 12.206)" rx=".921" ry=".625" fill="rgba(188, 143, 72, 0.5)" stroke="none" fill-rule="evenodd"/>
  </g>
</svg>
</g></svg></g></g>
<!-- /image 27854 -->

<!-- image 97205 -->
<g id="transformed-97205" data-image="97205" transform="translate(3.1975899438621926, 69.182258386307) rotate(347, 12.012410056137808, 14.507741613692998)"><g><svg version="1.1" width="24.024820112275616px" height="29.015483227385996px" viewBox="0 0 24.024820112275616 29.015483227385996"><g id="original-97205"><svg xmlns="http://www.w3.org/2000/svg" viewBox="0 0 54 65" xmlns:xlink="http://www.w3.org/1999/xlink" version="1.1" preserveAspectRatio="xMidYMid meet">
  <path fill-rule="evenodd" d="M53.976 18.22v-.001a7.74 7.74 0 0 0-7.74-7.74H44.03a8.953 8.953 0 0 0-6.056-2.357 8.952 8.952 0 0 0-5.598 1.961 8.952 8.952 0 0 0-5.599-1.961 8.944 8.944 0 0 0-5.376 1.795 8.953 8.953 0 0 0-11.432.562H7.764a7.74 7.74 0 0 0-7.74 7.74v.001c0 2.13.87 4.047 2.263 5.445v4.943A8.945 8.945 0 0 0 .59 33.852c0 1.577.409 3.058 1.122 4.347a8.951 8.951 0 0 0 .135 8.917 8.941 8.941 0 0 0 .44 9.814v4.862a3.086 3.086 0 0 0 3.085 3.086h43.255a3.086 3.086 0 0 0 3.086-3.086V56.93a8.945 8.945 0 0 0 .44-9.814 8.951 8.951 0 0 0 .135-8.917 8.952 8.952 0 0 0 1.122-4.347 8.945 8.945 0 0 0-1.697-5.244v-4.943a7.684 7.684 0 0 0 2.263-5.445z" fill="rgba(66, 61, 56, 1)" stroke="none"/>
  <path fill-rule="evenodd" d="M48.713 57.677H5.286a3 3 0 0 1-3-3V14.19a3 3 0 0 1 3-3h43.427a3 3 0 0 1 3 3v40.487a3 3 0 0 1-3 3z" fill="rgba(249, 204, 78, 1)" stroke="none"/>
  <circle cx="9.586" cy="26.651" r="8.997" fill-rule="evenodd" fill="rgba(181, 73, 44, 1)" stroke="none"/>
  <circle cx="9.586" cy="44.485" r="8.997" fill-rule="evenodd" fill="rgba(181, 73, 44, 1)" stroke="none"/>
  <circle cx="9.586" cy="35.346" r="8.997" fill-rule="evenodd" fill="rgba(153, 198, 74, 1)" stroke="none"/>
  <circle cx="44.413" cy="26.651" r="8.997" fill-rule="evenodd" fill="rgba(181, 73, 44, 1)" stroke="none"/>
  <circle cx="44.413" cy="44.485" r="8.997" fill-rule="evenodd" fill="rgba(181, 73, 44, 1)" stroke="none"/>
  <circle cx="44.413" cy="35.346" r="8.997" fill-rule="evenodd" fill="rgba(153, 198, 74, 1)" stroke="none"/>
  <circle cx="16.025" cy="9.918" r="8.997" fill-rule="evenodd" fill="rgba(181, 73, 44, 1)" stroke="none"/>
  <circle cx="37.974" cy="9.918" r="8.997" fill-rule="evenodd" fill="rgba(181, 73, 44, 1)" stroke="none"/>
  <circle cx="26.777" cy="9.918" r="8.997" fill-rule="evenodd" fill="rgba(153, 198, 74, 1)" stroke="none"/>
  <path fill-rule="evenodd" d="M46.236 3.278H7.763a7.74 7.74 0 0 0-7.74 7.74v.001c0 3.298 2.066 6.106 4.97 7.221v34.85a2.263 2.263 0 0 0 2.264 2.263h39.485a2.263 2.263 0 0 0 2.264-2.263V18.24c2.905-1.115 4.97-3.923 4.97-7.22v-.002a7.74 7.74 0 0 0-7.74-7.74z" fill="rgba(229, 175, 110, 1)" stroke="none"/>
  <path fill-rule="evenodd" d="M7.257 53.09V16.685l-1.452-.558a5.506 5.506 0 0 1-3.518-5.108 5.484 5.484 0 0 1 5.476-5.478h38.474a5.483 5.483 0 0 1 5.476 5.477 5.44 5.44 0 0 1-3.518 5.11l-1.452.557V53.09H7.257z" fill="rgba(255, 232, 194, 1)" stroke="none"/>
  <circle cx="13.448" cy="28.603" r="1.023" fill-rule="evenodd" fill="rgba(229, 175, 110, 1)" stroke="none"/>
  <circle cx="34.364" cy="18.595" r="1.023" fill-rule="evenodd" fill="rgba(229, 175, 110, 1)" stroke="none"/>
  <circle cx="18.189" cy="43.606" r="1.023" fill-rule="evenodd" fill="rgba(229, 175, 110, 1)" stroke="none"/>
  <circle cx="39.476" cy="43.606" r="1.023" fill-rule="evenodd" fill="rgba(229, 175, 110, 1)" stroke="none"/>
  <circle cx="40.499" cy="29.315" r="1.023" fill-rule="evenodd" fill="rgba(229, 175, 110, 1)" stroke="none"/>
  <circle cx="28.507" cy="26.651" r="1.023" fill-rule="evenodd" fill="rgba(229, 175, 110, 1)" stroke="none"/>
  <circle cx="33.853" cy="36.055" r="1.023" fill-rule="evenodd" fill="rgba(229, 175, 110, 1)" stroke="none"/>
  <circle cx="23.488" cy="33.251" r="1.023" fill-rule="evenodd" fill="rgba(229, 175, 110, 1)" stroke="none"/>
  <circle cx="16.144" cy="14.38" r="1.023" fill-rule="evenodd" fill="rgba(229, 175, 110, 1)" stroke="none"/>
</svg>
</g></svg></g></g>
<!-- /image 97205 -->
</defs><rect x="0" y="0" width="250" height="250" fill="rgba(249, 223, 223, 1)"></rect><use xlink:href="#transformed-34579" transform="translate(-250, -250)"></use><use xlink:href="#transformed-34579" transform="translate(0, -250)"></use><use xlink:href="#transformed-34579" transform="translate(250, -250)"></use><use xlink:href="#transformed-34579" transform="translate(-250, 0)"></use><use xlink:href="#transformed-34579" transform="translate(0, 0)"></use><use xlink:href="#transformed-34579" transform="translate(250, 0)"></use><use xlink:href="#transformed-34579" transform="translate(-250, 250)"></use><use xlink:href="#transformed-34579" transform="translate(0, 250)"></use><use xlink:href="#transformed-34579" transform="translate(250, 250)"></use><use xlink:href="#transformed-75948" transform="translate(-250, -250)"></use><use xlink:href="#transformed-75948" transform="translate(0, -250)"></use><use xlink:href="#transformed-75948" transform="translate(250, -250)"></use><use xlink:href="#transformed-75948" transform="translate(-250, 0)"></use><use xlink:href="#transformed-75948" transform="translate(0, 0)"></use><use xlink:href="#transformed-75948" transform="translate(250, 0)"></use><use xlink:href="#transformed-75948" transform="translate(-250, 250)"></use><use xlink:href="#transformed-75948" transform="translate(0, 250)"></use><use xlink:href="#transformed-75948" transform="translate(250, 250)"></use><use xlink:href="#transformed-27854" transform="translate(-250, -250)"></use><use xlink:href="#transformed-27854" transform="translate(0, -250)"></use><use xlink:href="#transformed-27854" transform="translate(250, -250)"></use><use xlink:href="#transformed-27854" transform="translate(-250, 0)"></use><use xlink:href="#transformed-27854" transform="translate(0, 0)"></use><use xlink:href="#transformed-27854" transform="translate(250, 0)"></use><use xlink:href="#transformed-27854" transform="translate(-250, 250)"></use><use xlink:href="#transformed-27854" transform="translate(0, 250)"></use><use xlink:href="#transformed-27854" transform="translate(250, 250)"></use><use xlink:href="#transformed-97205" transform="translate(-250, -250)"></use><use xlink:href="#transformed-97205" transform="translate(0, -250)"></use><use xlink:href="#transformed-97205" transform="translate(250, -250)"></use><use xlink:href="#transformed-97205" transform="translate(-250, 0)"></use><use xlink:href="#transformed-97205" transform="translate(0, 0)"></use><use xlink:href="#transformed-97205" transform="translate(250, 0)"></use><use xlink:href="#transformed-97205" transform="translate(-250, 250)"></use><use xlink:href="#transformed-97205" transform="translate(0, 250)"></use><use xlink:href="#transformed-97205" transform="translate(250, 250)"></use></svg>